<mxfile host="app.diagrams.net" modified="2023-05-21T17:28:46.895Z" agent="Mozilla/5.0 (Windows NT 10.0; Win64; x64) AppleWebKit/537.36 (KHTML, like Gecko) Chrome/112.0.0.0 Safari/537.36 OPR/98.0.0.0" etag="s7rJrCTgrBMl6QLaMubx" version="21.3.2">
  <diagram name="Página-1" id="JQGcRI9lrnz_NYCIfcnt">
    <mxGraphModel dx="772" dy="494" grid="1" gridSize="10" guides="1" tooltips="1" connect="1" arrows="1" fold="1" page="1" pageScale="1" pageWidth="827" pageHeight="1169" background="#ffffff" math="0" shadow="0">
      <root>
        <mxCell id="0" />
        <mxCell id="1" parent="0" />
        <mxCell id="f3evQY8TpWbgRilSzCnZ-1" value="&amp;lt;&amp;lt;Aplicação&amp;gt;&amp;gt;&lt;br&gt;Beholder" style="rounded=0;whiteSpace=wrap;html=1;" vertex="1" parent="1">
          <mxGeometry x="354" y="230" width="120" height="60" as="geometry" />
        </mxCell>
        <mxCell id="f3evQY8TpWbgRilSzCnZ-2" value="&amp;lt;&amp;lt;Sistema&amp;gt;&amp;gt;&lt;br&gt;Sistema cliente" style="rounded=0;whiteSpace=wrap;html=1;" vertex="1" parent="1">
          <mxGeometry x="130" y="110" width="120" height="60" as="geometry" />
        </mxCell>
        <mxCell id="f3evQY8TpWbgRilSzCnZ-5" style="edgeStyle=orthogonalEdgeStyle;rounded=0;orthogonalLoop=1;jettySize=auto;html=1;entryX=1;entryY=0.5;entryDx=0;entryDy=0;endArrow=none;endFill=0;strokeColor=#080808;" edge="1" parent="1" source="f3evQY8TpWbgRilSzCnZ-3" target="f3evQY8TpWbgRilSzCnZ-2">
          <mxGeometry relative="1" as="geometry" />
        </mxCell>
        <mxCell id="f3evQY8TpWbgRilSzCnZ-6" style="edgeStyle=orthogonalEdgeStyle;rounded=0;orthogonalLoop=1;jettySize=auto;html=1;entryX=0;entryY=0.5;entryDx=0;entryDy=0;endArrow=none;endFill=0;strokeColor=#080808;" edge="1" parent="1" source="f3evQY8TpWbgRilSzCnZ-3" target="f3evQY8TpWbgRilSzCnZ-4">
          <mxGeometry relative="1" as="geometry" />
        </mxCell>
        <mxCell id="f3evQY8TpWbgRilSzCnZ-7" style="edgeStyle=orthogonalEdgeStyle;rounded=0;orthogonalLoop=1;jettySize=auto;html=1;entryX=0.5;entryY=0;entryDx=0;entryDy=0;endArrow=none;endFill=0;strokeColor=#080808;" edge="1" parent="1" source="f3evQY8TpWbgRilSzCnZ-3" target="f3evQY8TpWbgRilSzCnZ-1">
          <mxGeometry relative="1" as="geometry" />
        </mxCell>
        <mxCell id="f3evQY8TpWbgRilSzCnZ-3" value="&amp;lt;&amp;lt;Aplicação&amp;gt;&amp;gt;&lt;br&gt;MsgProcessor" style="rounded=0;whiteSpace=wrap;html=1;" vertex="1" parent="1">
          <mxGeometry x="354" y="110" width="120" height="60" as="geometry" />
        </mxCell>
        <mxCell id="f3evQY8TpWbgRilSzCnZ-4" value="&amp;lt;&amp;lt;Entidade agregada&amp;gt;&amp;gt;&lt;br&gt;Usinas de informação" style="rounded=0;whiteSpace=wrap;html=1;" vertex="1" parent="1">
          <mxGeometry x="590" y="110" width="140" height="60" as="geometry" />
        </mxCell>
        <mxCell id="f3evQY8TpWbgRilSzCnZ-9" style="edgeStyle=orthogonalEdgeStyle;rounded=0;orthogonalLoop=1;jettySize=auto;html=1;entryX=0.5;entryY=1;entryDx=0;entryDy=0;endArrow=none;endFill=0;strokeColor=#080808;" edge="1" parent="1" source="f3evQY8TpWbgRilSzCnZ-8" target="f3evQY8TpWbgRilSzCnZ-1">
          <mxGeometry relative="1" as="geometry" />
        </mxCell>
        <mxCell id="f3evQY8TpWbgRilSzCnZ-8" value="&amp;lt;&amp;lt;Entidade agregada&amp;gt;&amp;gt;&lt;br&gt;Arranjo de outras máquinas com MsgProcessor e Beholder" style="rounded=0;whiteSpace=wrap;html=1;" vertex="1" parent="1">
          <mxGeometry x="316" y="350" width="196" height="60" as="geometry" />
        </mxCell>
      </root>
    </mxGraphModel>
  </diagram>
</mxfile>
